<svg width="62" height="50" viewBox="0 0 62 50" fill="none" xmlns="http://www.w3.org/2000/svg">
<path id="Quote" d="M38.8316 1.78925e-06L62 3.8147e-06L62 23.0519C62 41.8831 53.0263 50 35.0789 50L35.0789 38.474C45.0316 38.474 48.9474 34.9026 48.9474 24.513L48.9474 22.2403L38.8316 22.2403L38.8316 1.78925e-06ZM3.75263 -1.27745e-06L26.9211 7.47998e-07L26.9211 23.0519C26.9211 41.8831 17.9474 50 -3.8147e-06 50L-2.80707e-06 38.474C9.95263 38.474 13.8684 34.9026 13.8684 24.513L13.8684 22.2403L3.75263 22.2403L3.75263 -1.27745e-06Z" fill="white"/>
</svg>
