<svg width="457" height="297" viewBox="0 0 457 297" fill="none" xmlns="http://www.w3.org/2000/svg">
<path fill-rule="evenodd" clip-rule="evenodd" d="M202.394 264.184C202.741 251.867 223.038 232.09 248.887 224.803C281.502 215.435 321.056 183.341 351.069 140.317C381.428 96.9465 402.073 42.4728 407.971 13.6746C327.822 16.1034 322.964 179.524 248.193 182.821C283.237 155.931 320.015 90.0072 342.048 16.4503C301.626 17.4912 246.979 59.1272 214.191 84.1087C175.33 113.601 122.938 147.951 75.2306 146.389C48.1672 145.695 25.9614 129.214 24.2266 98.6813C24.2266 54.9636 86.854 24.951 126.582 42.1258C145.144 50.2795 157.982 72.1384 179.667 62.4234C194.934 55.6575 197.016 32.7577 186.086 22.0018C163.36 -0.551018 117.387 -6.10247 77.3124 6.90876C43.1362 18.0117 13.4706 42.9933 4.10253 74.2202C-3.87769 100.416 0.632871 122.969 10.3479 139.45C28.9106 171.197 93.2728 188.893 153.818 160.268C167.871 153.675 229.978 128 275.777 89.1397C271.613 129.908 211.415 158.706 178.28 201.21C166.309 216.476 147.92 247.877 149.308 274.246C149.828 282.4 155.38 290.554 158.849 296.799L267.623 296.972C255.48 236.08 217.487 266.786 202.394 264.184Z" fill="#6CC8F9"/>
<path fill-rule="evenodd" clip-rule="evenodd" d="M414.911 252.214L415.084 251.867C414.911 252.04 414.911 252.214 414.911 252.214L412.829 250.132C408.665 246.315 398.95 236.08 400.338 230.008C402.594 221.16 414.39 219.078 420.289 217.17C441.627 210.751 465.741 199.995 466.956 196.352C448.393 171.891 406.41 183.861 390.797 191.494C369.632 201.903 364.948 215.782 330.251 222.721C361.131 246.142 375.53 268.174 395.828 288.298C400.859 292.809 407.278 295.237 414.39 296.278C423.065 297.666 478.059 296.625 497.315 296.625C496.968 273.899 470.772 257.938 447.352 261.582C421.503 265.745 426.361 263.837 414.911 252.214Z" fill="#6CC8F9"/>
<path fill-rule="evenodd" clip-rule="evenodd" d="M298.33 219.252C332.68 219.252 385.245 181.259 419.421 134.766C450.995 91.9153 465.741 41.9522 465.568 4.65332C417.513 7.60253 410.747 145.695 298.33 219.252Z" fill="#6CC8F9"/>
</svg>
