<svg width="180" height="168" viewBox="0 0 180 168" fill="none" xmlns="http://www.w3.org/2000/svg">
<path id="Vector" d="M11.2304 62.8496C10.559 73.5407 3.84534 70.6558 5.02023 82.7044C6.8665 92.0379 25.8327 102.559 39.7636 101.88C34.8962 94.753 32.7142 92.0379 33.3856 90.0015C36.9103 79.9892 80.2136 74.3892 88.1022 91.6985C94.8159 106.462 87.4308 117.662 79.2066 122.414C66.2827 130.22 56.0443 123.093 49.1628 119.19C45.9738 126.317 49.3306 124.959 51.5126 130.05C53.8623 135.141 52.0161 139.893 52.6875 145.663C53.5267 153.639 60.5761 163.99 65.2757 167.893C94.8159 150.754 129.895 144.645 150.036 143.796C149.365 133.275 140.301 108.838 149.029 92.547C162.456 96.1106 177.898 94.2439 179.744 77.6134C181.423 63.189 173.366 55.2132 160.778 50.4616L160.61 45.3706C169.002 39.6009 174.541 35.1887 176.891 24.3279C179.912 11.7702 172.863 3.62466 161.617 1.41857C148.861 -1.12692 141.644 6.17014 127.881 6.17014C114.957 6.00044 101.194 5.66105 88.4379 6.17014C74.0034 6.67924 58.0584 14.146 46.6451 22.8006L13.0766 49.2737C9.88764 52.1586 3.67745 55.2132 1.83119 57.2496C-3.87546 63.8678 5.0202 63.0193 11.2304 62.8496ZM163.128 15.1642C167.492 19.5764 162.456 29.5886 156.078 34.1705C137.951 47.407 141.308 42.9948 128.552 32.4735C123.013 27.8916 112.943 28.0613 112.439 19.9158C140.133 23.6491 156.414 8.71563 163.128 15.1642ZM75.1783 33.4917C84.2418 27.2128 90.6199 36.716 90.6199 40.9584C90.6199 49.9525 70.9823 45.5403 65.947 43.8433C62.5902 42.8251 66.1149 39.9403 75.1783 33.4917Z" fill="#F5F5F5"/>
</svg>
