<svg width="253" height="203" viewBox="0 0 253 203" fill="none" xmlns="http://www.w3.org/2000/svg">
<path d="M161.114 114.923C161.283 114.753 161.283 114.923 161.114 114.923V114.923Z" fill="#F5F5F5"/>
<path d="M129.559 16.1579C130.734 -12.3515 85.9201 3.09108 83.5703 15.3094C98.1726 14.2912 125.699 16.3276 129.559 16.1579Z" fill="#F5F5F5"/>
<path d="M11.2304 82.8496C10.559 93.5407 3.84534 90.6558 5.02023 102.704C6.8665 112.038 25.8327 122.559 39.7636 121.88C34.8962 114.753 32.7142 112.038 33.3856 110.001C36.9103 99.9892 80.2136 94.3892 88.1022 111.698C94.8159 126.462 87.4308 137.662 79.2066 142.414C66.2827 150.22 56.0443 143.093 49.1628 139.19C45.9738 146.317 49.3306 144.959 51.5126 150.05C53.8623 155.141 52.0161 159.893 52.6875 165.663C53.5267 173.639 60.5761 183.99 65.2757 187.893C94.8159 170.754 129.895 164.645 150.036 163.796C149.365 153.275 140.301 128.838 149.029 112.547C162.456 116.111 177.898 114.244 179.744 97.6134C181.423 83.189 173.366 75.2132 160.778 70.4616L160.61 65.3706C169.002 59.6009 174.541 55.1887 176.891 44.3279C179.912 31.7702 172.863 23.6247 161.617 21.4186C148.861 18.8731 141.644 26.1701 127.881 26.1701C114.957 26.0004 101.194 25.661 88.4379 26.1701C74.0034 26.6792 58.0584 34.146 46.6451 42.8006L13.0766 69.2737C9.88764 72.1586 3.67745 75.2132 1.83119 77.2496C-3.87546 83.8678 5.0202 83.0193 11.2304 82.8496ZM163.128 35.1642C167.492 39.5764 162.456 49.5886 156.078 54.1705C137.951 67.407 141.308 62.9948 128.552 52.4735C123.013 47.8916 112.943 48.0613 112.439 39.9158C140.133 43.6491 156.414 28.7156 163.128 35.1642ZM75.1783 53.4917C84.2418 47.2128 90.6199 56.716 90.6199 60.9584C90.6199 69.9525 70.9823 65.5403 65.947 63.8433C62.5902 62.8251 66.1149 59.9403 75.1783 53.4917Z" fill="#F5F5F5"/>
<path d="M170.009 133.929C162.624 139.529 172.527 166.172 170.849 183.821C158.26 185.857 143.994 181.615 140.973 193.493C138.119 205.033 158.596 223.87 194.179 260.015C220.194 215.554 282.128 161.251 236.978 130.705C237.986 180.936 208.613 185.518 188.472 227.433C188.136 207.409 191.661 201.469 199.046 189.081C206.095 177.033 213.816 171.263 219.187 157.687C227.244 137.153 230.097 96.765 203.578 87.9406C203.914 118.656 199.382 124.426 170.009 133.929Z" fill="#F5F5F5"/>
</svg>
