<svg width="113" height="92" viewBox="0 0 113 92" fill="none" xmlns="http://www.w3.org/2000/svg">
<g id="Tiger">
<path id="Vector" fill-rule="evenodd" clip-rule="evenodd" d="M24.3213 87.0162C24.363 85.5361 26.8022 83.1595 29.9084 82.2839C33.8277 81.1582 38.5808 77.3014 42.1874 72.1313C45.8357 66.9195 48.3165 60.3735 49.0253 56.9129C39.3939 57.2047 38.8102 76.8428 29.825 77.2389C34.0361 74.0076 38.4557 66.0856 41.1033 57.2464C36.2459 57.3715 29.6791 62.3748 25.739 65.3768C21.0692 68.9209 14.7733 73.0486 9.04035 72.861C5.78818 72.7776 3.11974 70.7971 2.91127 67.128C2.91127 61.8745 10.4371 58.2679 15.2111 60.3318C17.4418 61.3116 18.9845 63.9384 21.5904 62.7709C23.4249 61.9579 23.6751 59.2061 22.3617 57.9135C19.6307 55.2034 14.1062 54.5363 9.29051 56.0998C5.18361 57.434 1.61874 60.436 0.492995 64.1885C-0.465976 67.3365 0.0760509 70.0466 1.24349 72.0271C3.47414 75.8421 11.2085 77.9685 18.4841 74.5287C20.1728 73.7365 27.6361 70.6512 33.1397 65.9814C32.6394 70.8805 25.4054 74.3411 21.4236 79.4487C19.9851 81.2832 17.7753 85.0566 17.9421 88.2254C18.0046 89.2052 18.6718 90.185 19.0887 90.9355L32.1599 90.9563C30.7006 83.639 26.1351 87.3289 24.3213 87.0162ZM49.8592 85.5778L49.88 85.5361C49.8592 85.5569 49.8592 85.5778 49.8592 85.5778C49.7758 85.4944 49.6924 85.411 49.609 85.3276C49.1087 84.869 47.9412 83.639 48.108 82.9093C48.379 81.8461 49.7966 81.5959 50.5054 81.3666C53.0696 80.5953 55.9674 79.3027 56.1133 78.865C53.8827 75.9255 48.8377 77.364 46.9614 78.2812C44.418 79.5321 43.8552 81.1999 39.6857 82.0337C43.3965 84.8481 45.1269 87.4957 47.566 89.914C48.1705 90.456 48.9419 90.7479 49.7966 90.8729C50.839 91.0397 57.4475 90.9146 59.7616 90.9146C59.7199 88.1837 56.572 86.2657 53.7576 86.7035C50.6514 87.2038 51.2351 86.9745 49.8592 85.5778ZM93.7842 42.5283C93.8051 42.5074 93.8051 42.5283 93.7842 42.5283V42.5283ZM60.8873 91.0397V69.8173H59.3446V67.941H60.8873V67.4407H59.3446V65.5228H60.8873V63.1253H59.3446V61.2491H60.8873V60.7904H59.3446V58.8308H60.8873V54.9949H57.7394V51.8053H58.3648V50.5128H57.7603V47.3231H60.8665V43.1746H62.8053V29.1444H61.3668V27.2264H62.9929V13.4464H62.4092V12.0288H63.4307V0H64.7858V12.0288H65.8073V13.4464H65.2235V27.2473H66.8496V29.1652H65.432V43.1954H67.35V47.344H70.4771V50.5336H69.8725V51.8261H70.4979V55.0158H67.35V58.8516H68.8927V60.8113H67.35V61.2699H68.8927V63.1462H67.35V65.5436H68.8927V67.4615H67.35V67.9619H68.8927V69.8381H67.35V91.0606H60.8873V91.0397ZM99.0169 75.717C100.956 75.7796 103.978 71.1515 105.792 67.3156C106.918 70.2342 104.604 74.5913 101.581 77.4473C101.602 77.489 101.664 77.4682 101.685 77.5307C103.645 78.9275 105.896 79.7822 108.106 80.1992C108.148 80.7829 108.273 82.7217 108.127 83.3471C107.835 84.5562 106.772 84.3061 107.397 87.4123C107.71 87.3498 109.128 87.0162 109.399 86.9328C111.504 86.2866 112.088 86.7244 112.547 82.1797C112.713 80.5744 112.984 78.719 112.713 77.9685C112.297 77.0096 111.734 75.9672 110.983 74.216L106.147 62.9377C103.562 63.1462 98.9752 72.4023 99.0169 75.717ZM94.0344 32.7301C94.5764 33.2721 93.951 34.5021 93.1588 35.065C90.9073 36.6911 91.3242 36.149 89.7399 34.8565C89.0519 34.2936 87.8011 34.3145 87.7385 33.3138C91.1783 33.7725 93.2005 31.9379 94.0344 32.7301ZM83.1104 34.9816C84.2362 34.2103 85.0284 35.3777 85.0284 35.8989C85.0284 37.0038 82.5893 36.4618 81.9639 36.2533C81.5469 36.1282 81.9847 35.7738 83.1104 34.9816ZM84.1528 30.291C85.9665 30.1659 89.3855 30.4161 89.8649 30.3952C90.0109 26.8929 84.4447 28.79 84.1528 30.291ZM75.1677 38.5882C75.0843 39.9015 74.2504 39.5471 74.3963 41.0273C74.6256 42.1739 76.9814 43.4664 78.7117 43.383C78.1071 42.5074 77.8361 42.1739 77.9195 41.9237C78.3573 40.6937 83.7359 40.0058 84.7157 42.1322C85.5496 43.9459 84.6323 45.3218 83.6108 45.9055C82.0055 46.8645 80.7339 45.9889 79.8791 45.5094C79.483 46.385 79.9 46.2182 80.171 46.8437C80.4629 47.4691 80.2335 48.0528 80.3169 48.7616C80.4212 49.7414 81.2967 51.0131 81.8805 51.4926C85.5496 49.387 89.9066 48.6365 92.4083 48.5323C92.3249 47.2398 91.1992 44.2378 92.2832 42.2364C93.951 42.6742 95.8689 42.4449 96.0983 40.4019C96.3067 38.6299 95.3061 37.65 93.7425 37.0663L93.7217 36.4409C94.764 35.7321 95.452 35.1901 95.7439 33.8559C96.1191 32.3132 95.2435 31.3125 93.8468 31.0415C92.2624 30.7288 91.3659 31.6252 89.6565 31.6252C88.0512 31.6044 86.3418 31.5627 84.7574 31.6252C82.9645 31.6877 80.984 32.605 79.5664 33.6682L75.397 36.9204C75.0009 37.2748 74.2295 37.65 74.0002 37.9002C73.2914 38.7133 74.3963 38.609 75.1677 38.5882ZM94.8891 44.8632C93.9718 45.5511 95.2018 48.8241 94.9933 50.9923C93.4298 51.2424 91.6578 50.7212 91.2826 52.1805C90.9281 53.5982 93.4715 55.9122 97.8911 60.3526C101.122 54.8907 108.815 48.2196 103.207 44.4671C103.332 50.6378 99.684 51.2007 97.1823 56.35C97.1406 53.89 97.5784 53.1604 98.4957 51.6385C99.3713 50.1584 100.33 49.4496 100.997 47.7818C101.998 45.2593 102.352 40.2976 99.0586 39.2136C99.1003 42.9869 98.5374 43.6957 94.8891 44.8632ZM105.959 52.5349C104.124 56.6418 100.247 60.3735 97.8911 64.3762C95.1601 59.0393 89.7607 55.7871 89.0519 53.9943C88.5933 52.8477 88.7809 52.4933 89.1978 51.6177C87.0923 51.3675 84.7365 53.1395 85.7997 55.5161C86.4877 57.1005 94.764 62.7501 97.8077 71.6935C101.79 64.7931 106.835 57.8927 105.959 52.5349ZM94.7223 80.6161C97.0364 77.2389 95.5771 71.631 94.7015 69.5254C91.1158 61.0198 82.756 59.894 82.1932 53.89C78.8368 54.6614 79.2746 57.9344 80.9215 59.9774C82.7977 62.3123 86.4252 64.2928 88.5099 66.1065C92.3666 69.4629 94.3679 74.362 94.7223 80.6161ZM78.5032 54.2861C72.937 54.2653 72.3533 59.8315 77.0022 63.8758C79.0661 65.5436 87.8636 72.4649 88.0512 75.0708C78.128 67.128 73.7709 67.3365 72.0197 61.0823C70.3728 63.1462 70.3937 67.8159 72.6243 69.6922C75.9182 72.4857 83.9652 72.6525 91.2826 80.5953C92.0747 77.7184 91.8246 74.5079 89.7607 71.4434C87.8219 68.5873 84.257 65.9189 80.2127 62.3748C77.0022 59.5605 76.2517 56.6418 78.5032 54.2861ZM76.0016 75.3209C77.7944 82.4507 89.9692 80.9288 89.99 86.9954C88.1972 86.3908 85.3619 83.7432 81.7971 82.8885C85.6538 87.6833 88.2597 91.0189 90.7822 91.0189C93.1588 91.0189 99.2045 91.0397 100.977 90.9563C100.81 88.7257 100.351 87.4749 99.0586 86.6827C97.7035 85.8488 93.8259 87.3289 93.2005 87.2664C93.4924 86.6827 93.2005 85.8279 92.9086 85.4318C88.5307 79.4904 81.943 75.6545 76.0016 75.3209ZM35.8498 81.6168C39.9776 81.6168 46.2943 77.0513 50.4012 71.4642C54.1954 66.3149 55.9674 60.311 55.9465 55.8288C50.1719 56.1832 49.3588 72.7776 35.8498 81.6168Z" fill="#EEEEEE"/>
</g>
</svg>
