<svg width="216" height="138" viewBox="0 0 216 138" fill="none" xmlns="http://www.w3.org/2000/svg">
<g id="Tiger">
<g id="Group 3">
<path id="Vector" d="M174.417 31.3786C174.462 31.3339 174.462 31.3786 174.417 31.3786V31.3786Z" fill="white"/>
<path id="Vector_2" d="M215.749 108.762C214.838 106.668 213.609 104.392 211.971 100.569L201.41 75.9426C195.766 76.3978 185.751 96.6084 185.842 103.846C190.076 103.983 196.676 93.8773 200.636 85.5017C203.094 91.8744 198.042 101.388 191.441 107.624C191.487 107.715 191.623 107.67 191.669 107.806C195.948 110.856 200.864 112.722 205.689 113.633C205.78 114.907 206.053 119.141 205.734 120.506C205.097 123.146 202.776 122.6 204.141 129.382C204.824 129.246 207.919 128.518 208.511 128.336C213.109 126.924 214.383 127.88 215.385 117.957C215.749 114.452 216.341 110.401 215.749 108.762Z" fill="white"/>
<path id="Vector_3" d="M165.859 4.8866C166.178 -2.76067 154.024 1.3816 153.387 4.65901C157.347 4.38589 164.812 4.93212 165.859 4.8866Z" fill="white"/>
<path id="Vector_4" d="M133.768 22.7758C133.586 25.6435 131.765 24.8697 132.084 28.1016C132.585 30.6051 137.728 33.4273 141.506 33.2453C140.186 31.3334 139.595 30.6051 139.777 30.0589C140.733 27.3732 152.477 25.8711 154.616 30.5141C156.437 34.4743 154.434 37.4786 152.204 38.7531C148.699 40.847 145.922 38.9352 144.056 37.8883C143.191 39.8001 144.101 39.4359 144.693 40.8015C145.33 42.1671 144.829 43.4416 145.012 44.9893C145.239 47.1287 147.151 49.9054 148.425 50.9524C156.437 46.3549 165.95 44.7162 171.413 44.4886C171.231 41.6664 168.773 35.1116 171.14 30.7417C174.781 31.6976 178.969 31.1969 179.47 26.736C179.925 22.8668 177.74 20.7274 174.326 19.4529L174.281 18.0873C176.557 16.5396 178.059 15.3561 178.696 12.4428C179.515 9.0744 177.603 6.88946 174.554 6.29771C171.094 5.61492 169.137 7.57226 165.404 7.57226C161.899 7.52674 158.167 7.4357 154.707 7.57226C150.792 7.70882 146.468 9.71167 143.373 12.0332L134.269 19.1342C133.404 19.908 131.72 20.7274 131.219 21.2736C129.671 23.0489 132.084 22.8213 133.768 22.7758ZM174.963 9.98479C176.147 11.1683 174.781 13.854 173.052 15.083C168.135 18.6335 169.046 17.45 165.586 14.6278C164.084 13.3988 161.353 13.4443 161.216 11.2593C168.727 12.2608 173.143 8.25505 174.963 9.98479ZM151.111 14.9009C153.569 13.2167 155.299 15.7658 155.299 16.9038C155.299 19.3163 149.973 18.1328 148.608 17.6776C147.697 17.4045 148.653 16.6306 151.111 14.9009Z" fill="white"/>
<path id="Vector_5" d="M176.83 36.4772C174.827 37.9793 177.512 45.1259 177.057 49.8599C173.643 50.4061 169.774 49.2682 168.955 52.4545C168.181 55.5499 173.734 60.6025 183.384 70.2982C190.44 58.3721 207.237 43.8058 194.992 35.6123C195.265 49.0861 187.299 50.3151 181.837 61.5584C181.746 56.1871 182.702 54.5939 184.705 51.271C186.616 48.0391 188.71 46.4915 190.167 42.8499C192.352 37.342 193.126 26.5084 185.934 24.1414C186.025 32.3804 184.796 33.9281 176.83 36.4772Z" fill="white"/>
<path id="Vector_6" d="M164.084 56.4147C163.083 53.9111 163.492 53.1373 164.403 51.2255C159.805 50.6793 154.662 54.5484 156.983 59.7376C158.485 63.1971 176.556 75.5329 183.202 95.0608C191.897 79.9938 202.912 64.9269 201 53.2284C196.995 62.1957 188.528 70.3437 183.384 79.0834C177.421 67.4304 165.632 60.3294 164.084 56.4147Z" fill="white"/>
<path id="Vector_7" d="M149.108 56.1871C141.78 57.8713 142.736 65.0179 146.332 69.4788C150.428 74.577 158.349 78.9013 162.901 82.8615C171.322 90.1902 175.692 100.887 176.465 114.543C181.518 107.169 178.332 94.9242 176.42 90.3267C168.591 71.7548 150.337 69.2967 149.108 56.1871Z" fill="white"/>
<path id="Vector_8" d="M168.955 114.498C170.685 108.216 170.138 101.206 165.632 94.5146C161.399 88.2784 153.615 82.4519 144.784 74.7136C137.774 68.5684 136.135 62.1957 141.051 57.052C128.898 57.0065 127.623 69.1602 137.774 77.991C142.28 81.6325 161.49 96.745 161.899 102.435C140.232 85.092 130.718 85.5472 126.895 71.8914C123.299 76.3978 123.344 86.5942 128.215 90.6909C135.407 96.7905 152.977 97.1547 168.955 114.498Z" fill="white"/>
<path id="Vector_9" d="M185.934 127.789C182.975 125.969 174.508 129.2 173.143 129.064C173.78 127.789 173.143 125.923 172.505 125.058C162.946 112.085 148.562 103.709 135.589 102.981C139.504 118.549 166.087 115.226 166.133 128.472C162.218 127.152 156.027 121.371 148.243 119.505C156.665 129.974 162.354 137.257 167.862 137.257C173.052 137.257 186.252 137.303 190.121 137.121C189.757 132.25 188.756 129.519 185.934 127.789Z" fill="white"/>
</g>
<g id="Group 2">
<path id="Vector_10" fill-rule="evenodd" clip-rule="evenodd" d="M53.1053 128.864C53.1963 125.632 58.5221 120.442 65.3045 118.531C73.8622 116.073 84.2406 107.651 92.1155 96.3626C100.081 84.9828 105.498 70.6896 107.046 63.1334C86.0159 63.7707 84.7413 106.65 65.1224 107.515C74.3174 100.459 83.9675 83.162 89.7485 63.8617C79.1424 64.1348 64.8038 75.0595 56.2006 81.6143C46.0042 89.3526 32.2573 98.3655 19.7394 97.9558C12.6384 97.7737 6.81191 93.4494 6.35671 85.438C6.35671 73.967 22.7893 66.0922 33.2132 70.5986C38.0838 72.738 41.4523 78.4735 47.1422 75.9244C51.1479 74.1491 51.6941 68.1405 48.8264 65.3183C42.8634 59.4008 30.8007 57.9442 20.2857 61.3581C11.3183 64.2714 3.5345 70.8262 1.07645 79.0197C-1.01745 85.8932 0.166056 91.8107 2.71515 96.135C7.58574 104.465 24.4735 109.108 40.3598 101.597C44.0469 99.8676 60.3429 93.1308 72.36 82.9344C71.2675 93.6315 55.4723 101.188 46.778 112.34C43.6372 116.346 38.8121 124.585 39.1763 131.504C39.3128 133.643 40.7695 135.783 41.6799 137.421L70.2206 137.467C67.0342 121.489 57.0655 129.546 53.1053 128.864Z" fill="white"/>
<path id="Vector_11" fill-rule="evenodd" clip-rule="evenodd" d="M108.867 125.723L108.912 125.632C108.867 125.677 108.867 125.723 108.867 125.723L108.32 125.176C107.228 124.175 104.679 121.489 105.043 119.896C105.635 117.575 108.73 117.029 110.278 116.528C115.877 114.844 122.204 112.021 122.523 111.065C117.652 104.647 106.636 107.788 102.54 109.791C96.9861 112.522 95.7571 116.164 86.6532 117.984C94.7557 124.13 98.5338 129.911 103.86 135.191C105.18 136.374 106.864 137.012 108.73 137.285C111.006 137.649 125.436 137.376 130.488 137.376C130.397 131.413 123.524 127.225 117.379 128.181C110.596 129.273 111.871 128.773 108.867 125.723Z" fill="white"/>
<path id="Vector_12" fill-rule="evenodd" clip-rule="evenodd" d="M78.2776 117.074C87.2904 117.074 101.083 107.105 110.05 94.906C118.335 83.6627 122.204 70.5531 122.158 60.7664C109.549 61.5402 107.774 97.7738 78.2776 117.074Z" fill="white"/>
</g>
</g>
</svg>
